<?xml version="1.0" standalone="no"?>
<!DOCTYPE svg PUBLIC "-//W3C//DTD SVG 20010904//EN"
 "http://www.w3.org/TR/2001/REC-SVG-20010904/DTD/svg10.dtd">
<svg version="1.0" xmlns="http://www.w3.org/2000/svg"
 width="700.000000pt" height="330.000000pt" viewBox="0 0 700.000000 330.000000"
 preserveAspectRatio="xMidYMid meet">
<metadata>
Created by potrace 1.13, written by Peter Selinger 2001-2015
</metadata>
<g transform="translate(0.000000,330.000000) scale(0.100000,-0.100000)"
fill="#000000" stroke="none">
<path d="M1042 3137 c-71 -76 -107 -151 -132 -279 -6 -32 -14 -57 -18 -55 -12
4 -84 -56 -93 -77 -23 -51 0 133 25 199 14 39 20 62 12 52 -8 -10 -24 -50 -37
-90 -19 -59 -24 -94 -24 -196 l0 -125 57 3 c31 1 66 -2 76 -8 24 -13 42 -61
42 -112 0 -28 6 -42 22 -53 37 -26 46 -20 41 28 l-5 44 46 -10 c64 -13 160 3
296 52 l112 40 54 -26 c46 -22 61 -25 111 -19 147 16 193 10 243 -31 39 -33
45 -28 18 14 -19 31 -103 82 -135 82 -7 0 -13 7 -13 15 0 12 14 15 66 15 l65
0 24 -52 c13 -29 26 -73 30 -97 6 -35 9 -41 17 -27 5 9 10 39 11 66 2 40 5 49
17 44 8 -3 36 -10 63 -16 38 -9 50 -9 60 2 9 9 9 11 0 6 -6 -3 -31 7 -55 24
-64 44 -154 65 -278 63 -128 -1 -224 -21 -386 -78 -141 -50 -239 -67 -309 -54
-55 10 -106 37 -113 59 -4 12 -1 11 15 -3 67 -59 193 -60 355 -2 57 20 145 49
196 63 59 17 90 31 88 39 -3 6 3 14 12 17 19 6 -80 -1 -115 -8 -53 -11 -176
-49 -218 -67 -25 -11 -54 -22 -63 -24 -9 -2 -26 -6 -37 -9 -11 -4 3 5 32 19
63 29 246 91 294 98 19 3 54 9 79 12 53 8 65 15 26 15 -25 0 -27 3 -24 33 l3
32 75 -1 c121 -2 249 -44 250 -81 0 -7 13 -19 30 -28 l30 -15 -18 34 c-48 96
-355 147 -582 97 -129 -29 -325 -111 -413 -173 -16 -11 -31 -17 -35 -14 -3 4
-8 59 -10 124 -6 192 35 328 133 440 60 68 52 67 -13 -1z"/>
<path d="M4883 2050 c-106 -16 -100 -10 -92 -92 10 -91 10 -378 1 -438 -6 -41
-10 -46 -47 -58 -22 -8 -89 -17 -150 -20 l-110 -7 -5 -47 c-3 -25 -3 -70 0
-100 l5 -53 53 -9 c43 -7 52 -12 52 -30 0 -48 11 -51 147 -49 187 2 435 44
455 76 4 7 8 39 8 72 0 33 3 70 6 82 6 21 8 20 31 -15 36 -53 84 -102 102
-102 8 0 32 -17 54 -37 l38 -38 266 0 266 0 57 64 c51 56 59 61 64 43 5 -16
19 -23 59 -29 49 -8 52 -10 55 -39 3 -28 8 -32 40 -38 127 -21 577 8 629 40
25 16 57 107 76 219 l14 80 -28 40 c-74 107 -140 183 -197 227 l-63 48 -100 0
-99 0 0 55 0 55 -37 0 -38 0 3 55 4 55 -69 0 c-37 0 -107 -7 -154 -16 l-86
-16 -6 -96 c-4 -53 -7 -144 -8 -202 0 -66 -3 -98 -9 -85 -4 11 -22 33 -39 49
-17 17 -31 35 -31 41 0 18 -109 134 -141 150 -30 16 -268 21 -426 8 -82 -6
-83 -6 -145 -59 l-63 -54 -10 78 c-10 77 -10 77 -41 80 -34 3 -44 20 -44 78 0
30 -3 32 -46 38 -57 7 -132 6 -201 -4z m208 -52 c9 -17 10 -93 5 -298 -8 -346
-11 -368 -45 -382 -55 -22 -242 -48 -382 -55 l-146 -6 -7 45 c-4 25 -4 57 -1
71 6 23 11 24 101 31 129 9 195 31 208 71 5 17 10 141 10 278 0 241 1 248 21
252 45 10 73 12 147 14 70 1 78 -1 89 -21z m1261 -94 l-4 -116 144 7 c110 6
150 4 169 -5 41 -22 105 -80 142 -129 l36 -46 -14 -78 c-21 -121 -53 -206 -78
-212 -121 -25 -511 -46 -591 -31 l-36 7 0 344 0 345 23 5 c44 10 133 23 172
24 l40 1 -3 -116z m-451 -103 c66 -70 69 -81 69 -262 l0 -126 -59 -56 -60 -57
-113 -2 c-62 -1 -176 0 -253 1 -154 4 -154 4 -206 75 l-29 39 0 167 0 168 57
48 c68 59 79 61 348 63 l189 1 57 -59z"/>
<path d="M6405 1671 c-39 -6 -40 -7 -48 -56 -11 -76 1 -202 21 -210 25 -10
141 6 156 21 16 15 36 120 36 183 0 34 -4 43 -22 50 -36 13 -100 18 -143 12z"/>
<path d="M5602 1740 c-104 -9 -104 -10 -110 -184 l-5 -145 37 -6 c45 -9 131
-2 169 13 l27 12 0 137 c0 154 -5 184 -29 182 -9 -1 -49 -5 -89 -9z"/>
<path d="M783 1739 c-24 -6 -43 -15 -43 -20 0 -6 -6 -9 -12 -6 -11 4 -68 -18
-68 -26 0 -2 17 -1 37 1 47 6 95 -20 119 -63 10 -19 23 -31 28 -27 26 16 98
22 114 10 24 -20 12 9 -26 63 -22 31 -45 53 -55 53 -9 -1 -15 3 -14 9 3 15
-29 17 -80 6z"/>
<path d="M1595 1694 c-11 -8 -37 -20 -57 -26 -39 -11 -52 -27 -21 -24 44 3 88
-237 81 -444 l-3 -95 -70 -18 c-51 -13 -114 -19 -230 -20 l-159 -2 -17 73
c-10 41 -15 81 -12 90 3 10 -4 2 -16 -16 -12 -18 -21 -36 -21 -41 0 -5 -11
-33 -25 -63 -34 -73 -33 -98 4 -98 29 0 59 -24 43 -34 -5 -3 -12 -2 -16 2 -4
4 -19 7 -32 7 -21 1 -24 -3 -20 -20 3 -11 6 -23 6 -27 0 -5 8 -8 17 -8 13 0
14 3 5 12 -20 20 -14 27 13 15 14 -7 25 -17 25 -23 0 -14 -28 -26 -41 -19 -5
4 -6 -1 -3 -10 6 -16 90 -85 104 -85 3 0 5 13 4 30 -4 56 61 110 134 110 101
0 196 -67 227 -161 21 -62 14 -108 -23 -152 -33 -38 -55 -71 -31 -45 16 16 17
16 32 0 49 -54 23 -166 -48 -211 -38 -24 -42 -29 -31 -48 8 -14 19 -19 39 -16
36 5 186 58 264 93 34 16 64 26 66 24 17 -17 74 205 83 322 6 76 5 81 -17 100
-13 10 -31 28 -39 39 -8 11 3 4 23 -14 44 -42 49 -32 7 15 -43 49 -58 118 -64
299 -6 183 -27 338 -54 398 -17 38 -82 107 -100 107 -4 0 -16 -7 -27 -16z"/>
<path d="M2575 1133 c-78 -7 -231 -33 -294 -50 l-64 -18 -28 -70 c-34 -85 -51
-180 -47 -260 l3 -60 53 -15 c43 -12 52 -19 52 -38 0 -27 21 -36 117 -54 l68
-12 -45 -8 c-25 -5 -83 -12 -130 -16 l-85 -7 2 -54 c2 -30 10 -79 18 -108 l16
-53 44 0 c40 0 45 -2 45 -23 0 -13 6 -31 13 -41 12 -17 19 -17 132 -2 166 23
265 43 371 77 93 30 110 41 131 88 l11 26 1 -30 c2 -67 9 -75 61 -75 51 0 60
-9 60 -56 0 -24 0 -24 113 -24 61 0 117 4 123 8 6 4 14 52 18 107 4 55 10 103
14 106 4 4 22 10 40 14 l32 7 0 -76 0 -76 55 0 55 0 0 -40 0 -40 119 0 118 0
7 46 c3 26 6 66 6 90 0 43 0 44 19 25 10 -10 33 -22 50 -26 20 -4 37 -17 46
-35 9 -17 28 -33 47 -39 83 -27 366 -61 506 -61 62 0 63 0 78 35 7 19 14 50
14 68 0 32 -2 35 -40 41 -40 6 -40 7 -40 50 0 51 7 56 86 56 48 0 54 -2 54
-20 0 -42 29 -79 71 -91 27 -8 45 -22 54 -40 9 -16 29 -32 47 -38 83 -27 366
-61 506 -61 62 0 63 0 78 35 7 19 14 50 14 68 0 32 -2 35 -40 41 -40 6 -40 7
-40 50 0 49 9 56 70 56 20 0 52 3 70 7 l33 6 -7 81 c-3 45 -9 91 -12 104 -6
20 -3 22 38 22 l44 0 -4 -40 -4 -40 44 0 45 0 6 -127 c9 -174 8 -173 67 -173
51 0 60 -9 60 -57 l0 -26 98 6 c53 3 111 9 128 13 l32 6 4 184 c2 101 8 188
13 193 6 5 47 11 93 13 l82 3 0 -32 c0 -33 10 -39 92 -57 20 -4 28 -13 30 -33
2 -20 12 -29 38 -39 l35 -12 -40 -1 c-22 -1 -57 -4 -79 -8 l-38 -6 5 -61 c2
-34 10 -73 17 -88 11 -24 19 -28 57 -28 37 0 43 -3 43 -21 0 -11 5 -29 11 -40
9 -18 17 -20 67 -14 182 20 328 47 435 81 38 13 51 23 67 53 43 85 31 203 -22
209 -22 3 -27 9 -33 42 -10 59 -23 70 -90 77 -47 5 -55 8 -35 14 14 4 45 8 70
8 25 1 62 4 83 8 l38 6 -6 51 c-10 80 -13 86 -44 86 -27 0 -29 4 -40 61 l-13
62 -156 -6 c-149 -5 -291 -24 -376 -49 -33 -10 -42 -20 -63 -65 -21 -46 -28
-53 -53 -53 -27 0 -28 2 -27 49 1 27 -1 52 -5 56 -4 4 -36 10 -72 12 l-66 6 0
38 c0 39 0 39 -40 39 l-40 0 0 55 0 55 -107 0 c-60 0 -132 -3 -160 -6 l-53 -7
0 -92 0 -91 -91 -11 c-52 -6 -95 -16 -99 -23 -4 -7 -11 -31 -15 -54 l-6 -41
-15 28 c-8 15 -21 27 -30 27 -8 0 -23 19 -33 43 -31 73 -40 77 -150 77 -125 0
-291 -16 -411 -40 -108 -22 -118 -31 -147 -122 -10 -32 -20 -58 -23 -58 -3 0
-15 23 -27 50 -12 29 -28 50 -37 50 -9 0 -27 24 -41 55 -19 40 -33 57 -52 61
-39 10 -303 -3 -419 -21 -170 -26 -184 -32 -216 -95 l-27 -55 -1 43 c0 41 -1
42 -34 42 -37 0 -46 15 -46 79 l0 33 -127 -4 c-71 -2 -134 -7 -140 -11 -9 -6
-13 -38 -13 -101 0 -102 -2 -105 -69 -106 -23 0 -23 2 -17 50 l7 50 -42 0 -41
0 4 52 3 53 -55 7 c-51 7 -102 5 -207 -8 l-43 -5 0 -67 c0 -37 -3 -110 -6
-163 l-7 -95 -28 4 c-20 3 -29 10 -29 23 0 11 -6 35 -14 53 -14 33 -16 34
-102 46 -49 7 -105 15 -124 20 l-35 7 45 7 c25 4 99 13 165 19 l120 12 0 60
c-1 92 -10 115 -44 115 -25 0 -30 4 -35 38 -14 77 -5 72 -134 70 -64 -1 -135
-3 -157 -5z m249 -49 c3 -9 6 -38 6 -64 0 -57 13 -52 -180 -71 -63 -6 -123
-15 -132 -20 -26 -14 -54 -139 -30 -139 44 0 348 -54 353 -62 15 -24 20 -105
9 -151 -23 -103 -30 -112 -117 -141 -163 -54 -489 -108 -504 -84 -16 25 -22
120 -9 128 6 4 46 10 88 14 88 7 200 32 219 48 7 6 13 30 13 54 0 53 4 51
-212 79 -64 8 -124 18 -134 22 -35 13 0 241 48 315 13 20 35 28 129 46 175 35
215 40 335 41 94 1 113 -2 118 -15z m3076 -84 l0 -100 110 0 110 0 0 -49 0
-48 -61 -7 c-34 -3 -83 -6 -109 -6 -36 0 -50 -4 -55 -17 -4 -10 -9 -97 -12
-194 l-6 -177 -51 -6 c-28 -3 -76 -6 -107 -6 l-56 0 -7 77 c-3 42 -6 127 -6
190 l0 113 -101 0 -102 0 7 52 c4 28 9 55 12 59 2 4 47 10 99 14 l95 7 0 94 0
93 28 4 c15 2 69 5 120 6 l92 1 0 -100z m-2688 -140 l-4 -110 84 1 c45 0 101
3 123 7 l40 7 5 100 5 100 103 3 102 3 0 -249 c0 -137 -3 -270 -6 -296 l-7
-46 -103 0 -104 0 6 74 c4 40 4 90 0 111 l-7 37 -104 -4 c-62 -2 -109 -8 -116
-15 -7 -7 -14 -55 -17 -113 l-5 -101 -106 3 -106 3 0 290 0 290 40 6 c22 3 72
7 110 8 l70 1 -3 -110z m1248 50 c27 -53 50 -153 50 -222 l0 -56 -47 -6 c-27
-4 -129 -11 -227 -16 -99 -6 -181 -12 -184 -15 -12 -12 16 -71 39 -82 14 -7
93 -18 175 -25 l149 -13 3 -29 c2 -16 1 -40 -3 -53 l-6 -26 -132 8 c-135 7
-353 36 -419 55 -30 9 -39 18 -49 48 -16 47 -15 189 1 266 20 98 44 142 82
155 79 25 279 47 445 50 l103 1 20 -40z m830 0 c27 -53 50 -153 50 -222 l0
-56 -47 -6 c-27 -4 -129 -11 -227 -16 -99 -6 -181 -12 -184 -15 -12 -12 16
-71 39 -82 14 -7 93 -18 175 -25 l149 -13 3 -29 c2 -16 1 -40 -3 -53 l-6 -26
-132 8 c-135 7 -353 36 -419 55 -48 14 -58 44 -58 171 0 167 34 279 92 298 79
25 279 47 445 50 l103 1 20 -40z m1524 24 c3 -9 6 -30 6 -48 l0 -33 -137 -12
c-159 -14 -173 -21 -176 -92 l-2 -44 158 -21 c106 -14 162 -26 168 -35 14 -20
6 -128 -12 -164 -8 -16 -27 -36 -42 -43 -69 -33 -480 -104 -497 -85 -4 4 -11
29 -14 54 l-7 46 78 7 c88 8 167 22 201 36 17 8 22 18 22 49 0 26 -5 41 -16
45 -9 3 -73 13 -142 21 -185 22 -174 17 -166 84 8 70 40 175 57 189 34 28 239
59 403 61 93 1 113 -2 118 -15z"/>
<path d="M4175 835 c-5 -2 -27 -6 -48 -10 -41 -7 -56 -28 -72 -104 l-7 -34 78
6 c137 11 144 14 144 58 0 64 -15 89 -52 88 -18 0 -37 -2 -43 -4z"/>
<path d="M5005 835 c-5 -2 -27 -6 -48 -10 -41 -7 -56 -28 -72 -104 l-7 -34 78
6 c137 11 144 14 144 58 0 64 -15 89 -52 88 -18 0 -37 -2 -43 -4z"/>
</g>
</svg>
